<?xml version="1.0" encoding="UTF-8"?>
<!-- Created with Inkscape (http://www.inkscape.org/) -->
<svg width="600mm" height="100mm" version="1.1" viewBox="0 0 240 40" xmlns="http://www.w3.org/2000/svg">
 <g transform="translate(-18.062 -15.975)">
  <g transform="translate(16.248 7.3165)" fill="#f60">
   <path d="m22.938 32.5-8-6 8-6v6z" stroke-width=".36605"/>
   <path d="m23.937 17.5v25h5.9459v-8.5597h8.108v8.5597h5.9459v-25h-5.9459v8.2026h-8.108v-8.2026zm2.5001 12h15v1.0005h-15z" stroke-width=".34114"/>
   <path d="m97.351 14.816v8.0166c-1.1684-1.2333-2.8232-1.8175-4.8679-1.8175-4.8034 0-8.6661 3.4729-8.6661 9.0553 0 5.6148 3.8627 9.1199 8.6661 9.1199 2.2719 0 3.992-0.64925 5.1604-2.0448v1.7529h5.8741v-24.082zm42.573 2.5642v3.9269h-2.4743v-0.29197c-2.5964 0-4.6408 0.81108-5.9066 2.4014v-2.1094h-5.8746v17.591h6.1666v-8.0817c0-3.0833 1.7198-4.3491 4.2189-4.3491 0.45438 0 0.84403 0.03276 1.3958 0.09767v-0.68161h2.4743v6.5882c0 4.5113 2.6293 6.7185 7.1406 6.7185 1.6228 0 3.2129-0.32457 4.284-1.0061l-1.5255-4.3165c-0.51929 0.35701-1.201 0.5519-1.8826 0.5519-1.1035 0-1.85-0.71406-1.85-2.0123v-6.5236h4.0246v-4.5765h-4.0246v-3.9269zm-84.845 3.6349c-5.5499 0-9.6718 3.765-9.6718 9.0553 0 5.2578 4.0569 9.1199 10.321 9.1199 3.3429 0 5.8095-0.97373 7.4972-2.8562l-3.2458-3.3755c-1.2009 1.0386-2.3365 1.5255-4.0566 1.5255-2.2719 0-3.7978-1.0385-4.317-2.8236h12.788c0.03246-0.48683 0.09715-1.0711 0.09715-1.5255 0-5.8096-4.2189-9.1199-9.4118-9.1199zm17.955 0c-2.7587 0-5.7444 0.71416-7.7566 2.0448l2.0769 4.1868c1.2009-0.94121 3.0836-1.5255 4.7713-1.5255 2.4342 0 3.6022 1.006 3.7321 2.791h-3.5052c-5.4525 0-7.8217 2.012-7.8217 5.2576 0 3.0508 2.337 5.4203 6.5562 5.4203 2.5315 0 4.2842-0.87639 5.193-2.5316v2.2397h5.7444v-9.7694c0-5.5824-3.278-8.1137-8.9901-8.1137zm41.688 0c-5.5499 0-9.6718 3.765-9.6718 9.0553 0 5.2578 4.0569 9.1199 10.321 9.1199 3.3429-4e-6 5.8095-0.97374 7.4972-2.8562l-3.2453-3.3755c-1.2009 1.0386-2.337 1.5255-4.0571 1.5255-2.2719 0-3.7972-1.0385-4.3165-2.8236h12.787c0.0324-0.48683 0.0977-1.0711 0.0977-1.5255 0-5.8096-4.2194-9.1199-9.4124-9.1199zm49.453 0c-2.5964 0-4.6414 0.81108-5.9071 2.4014v-2.1094h-5.8741v17.591h6.1666v-8.0817c0-3.0833 1.7198-4.3491 4.2189-4.3491 0.45437 0 0.84403 0.03276 1.3958 0.09767v-3.2592l1.9549 3.9408c1.2008-0.94121 3.0836-1.5255 4.7713-1.5255 2.4342 0 3.6022 1.006 3.7321 2.791h-3.5052c-5.4525 0-7.8218 2.012-7.8218 5.2576 0 3.0508 2.337 5.4203 6.5562 5.4203 2.5315 0 4.2842-0.87639 5.193-2.5316v2.2397h5.7444v-9.7694c0-5.5824-3.278-8.1137-8.9902-8.1137-2.7035 0-5.625 0.68546-7.6347 1.9653zm28.414 0c-5.9069 0-10.094 3.765-10.094 9.0553 0 5.3552 4.187 9.1199 10.094 9.1199 3.992 0 7.0426-1.7851 8.2434-4.8359l-4.7708-2.4345c-0.84385 1.6552-2.0772 2.3694-3.5052 2.3694-1.9522 0-3.5271-1.2399-3.791-3.5233h-2.8117v-1.2552h2.7993c0.22079-2.31 1.8165-3.5951 3.8034-3.5951 1.428 0 2.6614 0.71413 3.5052 2.3694l4.7708-2.434c-1.2009-3.0508-4.2514-4.8359-8.2434-4.8359zm17.631 0c-5.5499 0-9.6718 3.765-9.6718 9.0553 0 5.2578 4.0569 9.1199 10.321 9.1199 3.3429-3e-6 5.8095-0.97373 7.4972-2.8562l-3.2453-3.3755c-1.2009 1.0386-2.337 1.5255-4.0571 1.5255-2.2719 0-3.7972-1.0385-4.3165-2.8236h12.787c0.0325-0.48683 0.0977-1.0711 0.0977-1.5255 0-5.8096-4.2194-9.1199-9.4123-9.1199zm-155.11 4.3816c1.9149 0 3.2783 1.1685 3.6029 3.0184h-7.2052c0.35701-1.85 1.6875-3.0184 3.6024-3.0184zm59.644 0c1.9149 0 3.2778 1.1685 3.6024 3.0184h-7.2047c0.35702-1.85 1.6875-3.0184 3.6024-3.0184zm95.499 0c1.9149 0 3.2778 1.1685 3.6024 3.0184h-7.2047c0.35701-1.85 1.6875-3.0184 3.6024-3.0184zm-116.47 0.51883c1.9235 0 3.4293 1.2805 3.6416 3.5832h3.4132v1.2557h-3.4236c-0.24763 2.2664-1.7371 3.5347-3.6313 3.5347-1.9238 0-3.416-1.2683-3.6639-3.5347h-2.8835v-1.2557h2.8732c0.21249-2.3027 1.7207-3.5832 3.6742-3.5832zm-20.585 5.81h2.6613v1.5255c-0.48683 1.3956-1.6878 2.0443-3.051 2.0443-1.4605 0-2.3043-0.74632-2.3043-1.7849 0-1.071 0.7141-1.7849 2.6939-1.7849zm98.776 0h2.6613v1.5255c-0.48683 1.3956-1.6873 2.0443-3.0505 2.0443-1.4605 0-2.3042-0.74632-2.3042-1.7849 0-1.071 0.71359-1.7849 2.6934-1.7849z" stroke-width=".26458"/>
   <path d="m220.69 26.816 8 6-8 6v-6z" stroke-width=".36605"/>
  </g>
 </g>
</svg>
