<?xml version="1.0" encoding="UTF-8"?>
<!-- Created with Inkscape (http://www.inkscape.org/) -->
<svg width="55mm" height="40mm" version="1.1" viewBox="0 0 55 40" xmlns="http://www.w3.org/2000/svg">
 <g transform="translate(1.9374 -10.621)">
  <g transform="translate(.14718 1.2517)" fill="#f60">
   <g transform="translate(.4154 -2.7917)">
    <path d="m15 15v25h5.9459v-8.5597h8.108v8.5597h5.9459v-25h-5.9459v8.2026h-8.108v-8.2026zm2.5001 12h15v1.0005h-15z" stroke-width=".34114"/>
    <path transform="matrix(1.2139 0 0 1.5769 -65.996 -102.95)" d="m65.902 84.314-6.5905-3.805 6.5905-3.805v3.805z" stroke-width=".26458"/>
    <path transform="matrix(-1.2139 0 0 -1.5769 116 157.95)" d="m65.902 84.314-6.5905-3.805 6.5905-3.805v3.805z" stroke-width=".26458"/>
   </g>
   <path d="m-1.9374 46.448h1.6231v-2.3856c0-0.81949 0.40149-1.1655 0.92258-1.1655 0.46983 0 0.76027 0.30048 0.76027 1.0107v2.5404h1.6231v-2.8227c0-1.5297-0.82861-2.1944-1.9135-2.1944-0.54671 0-1.0336 0.18211-1.3924 0.53722v-2.2764h-1.6231zm8.4314 0.08194c0.87987 0 1.5291-0.27316 1.9733-0.80128l-0.85424-0.94696c-0.31607 0.29137-0.61505 0.42796-1.0678 0.42796-0.59797 0-0.99946-0.29138-1.1361-0.79217h3.3657c0.00854-0.13658 0.025627-0.30048 0.025627-0.42796 0-1.6299-1.1105-2.5586-2.4773-2.5586-1.4608 0-2.5456 1.0562-2.5456 2.5404 0 1.4751 1.0678 2.5586 2.7165 2.5586zm-1.1105-3.023c0.093967-0.51901 0.44421-0.84681 0.94821-0.84681 0.504 0 0.86278 0.3278 0.94821 0.84681zm6.8681 2.9411h1.512v-2.7407c0-1.5661-0.86278-2.2764-2.3662-2.2764-0.7261 0-1.512 0.20032-2.0416 0.57364l0.54671 1.1746c0.31607-0.26406 0.81153-0.42796 1.2557-0.42796 0.64068 0 0.94821 0.28227 0.98238 0.78307h-0.92258c-1.4351 0-2.0587 0.56454-2.0587 1.4751 0 0.85591 0.61505 1.5206 1.7256 1.5206 0.66631 0 1.1276-0.24585 1.3668-0.71022zm-0.11105-1.5843c-0.12814 0.39154-0.44421 0.57364-0.80299 0.57364-0.38441 0-0.60651-0.20943-0.60651-0.5008 0-0.30048 0.18793-0.5008 0.70902-0.5008h0.70048zm4.724 1.6663c0.59797 0 1.0507-0.18211 1.3582-0.57364v0.49169h1.5462v-6.7562h-1.6231v2.249c-0.30753-0.34601-0.74319-0.5099-1.2814-0.5099-1.2643 0-2.2808 0.97428-2.2808 2.5404 0 1.5752 1.0165 2.5586 2.2808 2.5586zm0.3417-1.3749c-0.55526 0-0.97384-0.42796-0.97384-1.1837 0-0.74665 0.41858-1.1655 0.97384-1.1655 0.54671 0 0.96529 0.41885 0.96529 1.1655 0 0.75575-0.41858 1.1837-0.96529 1.1837zm6.0309 1.3749c0.87987 0 1.5291-0.27316 1.9733-0.80128l-0.85424-0.94697c-0.31607 0.29137-0.61505 0.42796-1.0678 0.42796-0.59797 0-0.99946-0.29138-1.1361-0.79218h3.3657c0.0085-0.13658 0.02563-0.30048 0.02563-0.42796 0-1.6299-1.1105-2.5586-2.4773-2.5586-1.4608 0-2.5456 1.0562-2.5456 2.5404 0 1.4751 1.0678 2.5586 2.7165 2.5586zm-1.1105-3.023c0.09396-0.51901 0.44421-0.84681 0.94821-0.84681s0.86278 0.3278 0.94821 0.84681zm4.1687 2.9411h1.6231v-2.2673c0-0.86502 0.45275-1.2201 1.1105-1.2201 0.11959 0 0.2221 0.0091 0.36732 0.02732v-1.557c-0.68339 0-1.2216 0.22764-1.5547 0.6738v-0.59186h-1.5462zm5.9797 0.08194c0.42712 0 0.8457-0.09105 1.1276-0.28227l-0.40149-1.211c-0.13668 0.10016-0.31607 0.15479-0.49546 0.15479-0.29044 0-0.48692-0.20032-0.48692-0.56454v-1.8302h1.0593v-1.2839h-1.0593v-1.1018h-1.6231v1.1018h-0.67485v1.2839h0.67485v1.8484c0 1.2657 0.69194 1.8848 1.8793 1.8848zm1.7512-0.08194h1.6231v-2.2673c0-0.86502 0.45275-1.2201 1.1105-1.2201 0.11959 0 0.2221 0.0091 0.36732 0.02732v-1.557c-0.68339 0-1.2216 0.22764-1.5547 0.6738v-0.59186h-1.5462zm6.3129 0h1.512v-2.7407c0-1.5661-0.86278-2.2764-2.3662-2.2764-0.7261 0-1.512 0.20032-2.0416 0.57364l0.54672 1.1746c0.31607-0.26406 0.81153-0.42796 1.2557-0.42796 0.64068 0 0.94821 0.28227 0.98238 0.78307h-0.92258c-1.4351 0-2.0587 0.56454-2.0587 1.4751 0 0.85591 0.61505 1.5206 1.7256 1.5206 0.66631 0 1.1276-0.24585 1.3668-0.71022zm-0.11105-1.5843c-0.12814 0.39154-0.4442 0.57364-0.80299 0.57364-0.38441 0-0.60651-0.20943-0.60651-0.5008 0-0.30048 0.18793-0.5008 0.70902-0.5008h0.70048zm5.0742 1.6663c1.0507 0 1.8537-0.5008 2.1698-1.3567l-1.2557-0.68291c-0.2221 0.46438-0.54671 0.6647-0.92258 0.6647-0.5638 0-1.008-0.41885-1.008-1.1837 0-0.74665 0.4442-1.1655 1.008-1.1655 0.37587 0 0.70048 0.20032 0.92258 0.6647l1.2557-0.68291c-0.31607-0.85591-1.1191-1.3567-2.1698-1.3567-1.5547 0-2.6567 1.0562-2.6567 2.5404 0 1.5024 1.102 2.5586 2.6567 2.5586zm5.1596 0c0.87987 0 1.5291-0.27316 1.9733-0.80128l-0.85424-0.94697c-0.31607 0.29137-0.61505 0.42796-1.0678 0.42796-0.59797 0-0.99946-0.29138-1.1361-0.79218h3.3657c0.0085-0.13658 0.02563-0.30048 0.02563-0.42796 0-1.6299-1.1105-2.5586-2.4773-2.5586-1.4608 0-2.5456 1.0562-2.5456 2.5404 0 1.4751 1.0678 2.5586 2.7165 2.5586zm-1.1105-3.023c0.09396-0.51901 0.4442-0.84681 0.94821-0.84681s0.86278 0.3278 0.94821 0.84681z" stroke-width=".24182" aria-label="headertrace"/>
  </g>
 </g>
</svg>
